<?xml version="1.0" encoding="UTF-8"?>
<svg id="Capa_2" data-name="Capa 2" xmlns="http://www.w3.org/2000/svg" xmlns:xlink="http://www.w3.org/1999/xlink" viewBox="0 0 253.42 67.47">
  <defs>
    <style>
      .cls-1 {
        fill: #f25aa3;
      }

      .cls-2 {
        fill: url(#Degradado_Dorado01);
        stroke: #f25aa3;
        stroke-miterlimit: 10;
        stroke-width: .25px;
      }
    </style>
    <radialGradient id="Degradado_Dorado01" data-name="Degradado Dorado01" cx="-28.79" cy="88.18" fx="-28.79" fy="88.18" r="159.59" gradientUnits="userSpaceOnUse">
      <stop offset=".1" stop-color="#85431e"/>
      <stop offset=".24" stop-color="#b58150"/>
      <stop offset=".43" stop-color="#eec56b"/>
      <stop offset=".57" stop-color="#f5e1a4"/>
      <stop offset=".66" stop-color="#ffffc7"/>
      <stop offset=".74" stop-color="#f5e1a4"/>
      <stop offset=".85" stop-color="#eeb661"/>
      <stop offset="1" stop-color="#b58150"/>
    </radialGradient>
  </defs>
  <g id="Capa_6" data-name="Capa 6">
    <g>
      <path class="cls-1" d="M110.9,33.09s-.02-.09-.03-.14c-.01-.05-.02-.1-.03-.15l-8.65-20.97c-.02-.05-.05-.11-.08-.17-.03-.07-.07-.13-.12-.18-.05-.05-.12-.1-.22-.14-.1-.04-.22-.06-.37-.06h-1c-.16,0-.29.02-.38.06-.1.04-.17.09-.22.14-.05.05-.09.12-.12.18-.03.06-.05.12-.08.17l-8.73,20.97s-.02.06-.03.1c0,.04-.02.08-.02.13,0,.05,0,.1,0,.17,0,.35.23.53.7.53h1.6c.2,0,.37-.05.5-.15.13-.1.23-.24.3-.41.14-.42.36-1,.65-1.73.29-.72.61-1.54.97-2.44h10.62l1.66,4.16c.07.17.17.31.3.41.13.1.3.15.5.15h1.6c.46,0,.7-.18.7-.53,0-.03,0-.07-.02-.11ZM96.74,26.08l4.16-10.35,4.08,10.35h-8.24ZM130.16,9c-.13-.12-.29-.18-.47-.18h-1.57c-.21,0-.38.07-.51.2-.13.13-.19.29-.19.47v7.58c-.87-.89-1.88-1.58-3.03-2.1-1.15-.51-2.4-.76-3.74-.76-.91,0-1.78.12-2.62.36-.84.24-1.63.57-2.36,1.01-.74.44-1.41.96-2.01,1.56-.6.61-1.13,1.28-1.56,2.02-.44.74-.78,1.53-1.01,2.38-.24.84-.36,1.72-.36,2.62s.12,1.78.36,2.62c.24.84.57,1.63,1.01,2.37.44.74.96,1.41,1.56,2.01.61.6,1.28,1.12,2.01,1.56.74.44,1.53.77,2.37,1.01.84.24,1.71.36,2.61.36,1.34,0,2.59-.25,3.74-.76s2.16-1.2,3.03-2.09v1.83c0,.44.22.67.67.67h1.56c.47,0,.71-.22.71-.67V9.48c0-.2-.07-.36-.2-.48ZM127.03,26.88c-.36.86-.85,1.61-1.48,2.25-.62.65-1.36,1.16-2.2,1.54-.84.38-1.74.57-2.68.57s-1.84-.19-2.67-.57c-.83-.38-1.56-.9-2.18-1.54-.62-.64-1.11-1.4-1.46-2.25-.36-.85-.54-1.76-.54-2.72s.18-1.84.54-2.71c.36-.87.85-1.63,1.46-2.29.62-.66,1.35-1.19,2.18-1.58.83-.39,1.72-.59,2.67-.59s1.84.2,2.68.59c.84.4,1.57.92,2.2,1.58.63.66,1.12,1.43,1.48,2.29.36.87.55,1.77.55,2.71s-.18,1.87-.55,2.72ZM151.36,14.51h-1.56c-.44,0-.67.22-.67.66v1.84c-.87-.89-1.88-1.58-3.03-2.09-1.15-.51-2.4-.76-3.74-.76-.91,0-1.78.12-2.62.36-.84.24-1.63.57-2.36,1.01-.74.43-1.41.95-2.01,1.56-.61.61-1.13,1.28-1.56,2.01-.44.74-.78,1.53-1.01,2.37-.24.84-.36,1.71-.36,2.62s.12,1.78.36,2.62c.24.84.57,1.63,1.01,2.38.44.74.96,1.41,1.56,2.02.61.6,1.28,1.13,2.01,1.56.74.44,1.53.78,2.37,1.01.84.24,1.71.36,2.61.36,1.34,0,2.59-.25,3.74-.76,1.15-.51,2.16-1.21,3.03-2.1v1.89c0,.18.06.34.19.47.13.13.3.2.51.2h1.57c.18,0,.34-.06.47-.18.13-.12.2-.28.2-.48V15.17c0-.44-.24-.66-.71-.66ZM148.75,26.79c-.36.87-.86,1.63-1.48,2.29-.63.66-1.36,1.19-2.2,1.58-.84.39-1.73.59-2.68.59s-1.84-.2-2.67-.59c-.83-.4-1.56-.92-2.18-1.58-.62-.66-1.11-1.42-1.47-2.29-.36-.87-.53-1.77-.53-2.71s.18-1.85.53-2.72c.36-.86.85-1.62,1.47-2.26.62-.65,1.35-1.16,2.18-1.54s1.72-.57,2.67-.57,1.84.19,2.68.57c.84.38,1.57.9,2.2,1.54.62.64,1.12,1.4,1.48,2.26s.54,1.77.54,2.72-.18,1.84-.54,2.71ZM167.38,16.09c-.15-.14-.28-.26-.4-.35-.4-.3-.79-.55-1.16-.75-.37-.2-.75-.35-1.14-.47-.39-.12-.81-.2-1.25-.24-.44-.04-.93-.07-1.48-.07-.49,0-.95.08-1.36.23-.41.16-.78.35-1.1.58-.32.23-.6.48-.83.76-.23.27-.4.53-.52.76v-1.36c0-.18-.06-.34-.19-.47-.13-.13-.3-.2-.51-.2h-1.57c-.18,0-.34.06-.47.18-.13.12-.2.28-.2.48v17.88c0,.44.23.67.7.67h1.57c.44,0,.66-.22.66-.67v-11.85c0-.66.11-1.24.33-1.76s.5-.96.86-1.32c.36-.36.77-.63,1.23-.83.46-.19.95-.29,1.45-.29.66,0,1.29.1,1.88.29.59.2,1.2.51,1.82.93.1.07.18.14.26.19.07.05.14.08.23.08.14,0,.28-.09.42-.26l.89-1.37c.05-.09.08-.19.08-.3,0-.19-.08-.36-.22-.5ZM186.17,14.51h-1.56c-.44,0-.67.22-.67.66v1.84c-.87-.89-1.88-1.58-3.03-2.09-1.15-.51-2.4-.76-3.74-.76-.91,0-1.78.12-2.62.36-.84.24-1.63.57-2.36,1.01-.74.43-1.41.95-2.01,1.56-.61.61-1.13,1.28-1.56,2.01-.44.74-.78,1.53-1.01,2.37-.24.84-.36,1.71-.36,2.62s.12,1.78.36,2.62c.24.84.57,1.63,1.01,2.38.44.74.96,1.41,1.56,2.02.61.6,1.28,1.13,2.01,1.56.74.44,1.52.78,2.37,1.01.84.24,1.71.36,2.61.36,1.34,0,2.59-.25,3.74-.76,1.15-.51,2.16-1.21,3.03-2.1v1.89c0,.18.06.34.19.47.13.13.3.2.51.2h1.57c.18,0,.34-.06.47-.18.13-.12.2-.28.2-.48V15.17c0-.44-.24-.66-.71-.66ZM183.56,26.79c-.36.87-.86,1.63-1.48,2.29-.63.66-1.36,1.19-2.2,1.58-.84.39-1.73.59-2.68.59s-1.84-.2-2.67-.59c-.83-.4-1.56-.92-2.18-1.58-.62-.66-1.11-1.42-1.47-2.29-.36-.87-.54-1.77-.54-2.71s.18-1.85.54-2.72.85-1.62,1.47-2.26c.62-.65,1.35-1.16,2.18-1.54s1.72-.57,2.67-.57,1.84.19,2.68.57c.84.38,1.57.9,2.2,1.54.62.64,1.12,1.4,1.48,2.26.36.86.54,1.77.54,2.72s-.18,1.84-.54,2.71ZM214.61,25.69c-.18-.58-.44-1.12-.76-1.62-.33-.49-.72-.94-1.16-1.32-.45-.39-.94-.69-1.47-.92.77-.51,1.39-1.18,1.85-1.99.46-.82.7-1.72.7-2.72,0-.83-.15-1.6-.46-2.31-.31-.72-.73-1.34-1.27-1.86-.54-.53-1.17-.94-1.9-1.24-.72-.3-1.51-.44-2.34-.44h-9.01c-.11,0-.22.03-.33.1-.11.07-.17.23-.17.48v21.47c.02.12.07.22.14.3.08.08.18.13.32.14h10.18c.83-.01,1.62-.19,2.34-.53s1.35-.8,1.89-1.37c.53-.57.95-1.23,1.26-1.97.31-.75.46-1.54.46-2.36,0-.62-.09-1.22-.27-1.8ZM200.18,13.14h7.61c.57,0,1.11.1,1.61.3.5.2.93.48,1.29.84.36.36.65.78.86,1.27.21.48.32,1.02.32,1.59s-.1,1.11-.32,1.6c-.21.49-.5.92-.87,1.28-.37.36-.81.64-1.3.85-.49.2-1.03.31-1.6.31h-7.6v-8.03ZM212.67,29.17c-.22.53-.51.98-.88,1.38-.37.39-.8.71-1.29.94s-1,.35-1.55.35h-8.77v-8.77h8.66c.55,0,1.08.12,1.58.37.5.25.94.58,1.32.99.38.41.68.89.9,1.42.23.53.34,1.09.34,1.66s-.11,1.14-.32,1.66ZM218.52,8.8h-.79c-.32,0-.48.16-.48.47v23.99c0,.31.16.47.5.47h.79c.32,0,.48-.16.48-.47V9.27c0-.31-.17-.47-.5-.47ZM223.97,8.57c-.05-.13-.17-.2-.36-.22h-1.11c-.17.02-.28.09-.34.21-.05.12-.08.28-.08.47v.77c0,.18.05.31.16.38.11.07.3.1.56.1h.55c.27,0,.46-.04.55-.12.1-.08.14-.27.14-.56v-.57c0-.18-.03-.33-.08-.46ZM223.46,14.61h-.8c-.32,0-.48.16-.48.48v18.15c0,.32.17.48.51.48h.79c.31,0,.47-.16.47-.48V15.1c0-.32-.16-.48-.48-.48ZM238.85,26.6c-.29-.6-.7-1.13-1.24-1.6-.54-.46-1.18-.87-1.94-1.2-.76-.34-1.59-.61-2.51-.83-.01,0-.03,0-.05,0-.02,0-.07-.02-.15-.04-.42-.1-.89-.25-1.41-.43-.51-.18-1-.42-1.44-.71-.45-.29-.83-.63-1.13-1.02-.3-.39-.45-.84-.45-1.35,0-.59.12-1.1.34-1.54.23-.44.53-.8.92-1.09.39-.29.83-.5,1.33-.64s1.02-.21,1.56-.21c1,0,1.86.22,2.57.66.72.44,1.28,1,1.69,1.67.07.12.13.24.18.34.04.11.09.2.14.27.05.07.1.13.16.17s.14.06.26.06c.06,0,.14-.02.25-.06.11-.04.22-.1.33-.17.11-.07.21-.15.29-.23.08-.09.12-.17.12-.27,0-.06-.03-.14-.09-.23h.01c-.24-.58-.54-1.12-.91-1.61-.36-.49-.79-.9-1.29-1.25-.49-.34-1.05-.61-1.66-.79-.61-.19-1.29-.28-2.03-.28-.9,0-1.71.12-2.45.37-.74.25-1.37.6-1.89,1.06-.53.46-.93,1.01-1.22,1.66-.29.65-.43,1.37-.43,2.16,0,.7.16,1.32.48,1.88.32.56.75,1.05,1.29,1.48.53.43,1.15.79,1.84,1.1.7.3,1.42.54,2.16.72.59.13,1.17.3,1.77.5.6.2,1.13.46,1.6.77.47.31.86.7,1.17,1.14.3.45.45.98.45,1.6,0,.69-.17,1.26-.51,1.74-.34.47-.76.86-1.26,1.15-.5.29-1.03.51-1.6.64-.57.14-1.08.2-1.53.2-.36,0-.76-.05-1.2-.14-.44-.1-.87-.24-1.29-.44-.42-.2-.82-.45-1.18-.76-.36-.31-.64-.67-.83-1.08-.06-.11-.12-.24-.16-.39-.05-.14-.1-.28-.14-.41-.05-.13-.11-.24-.17-.33-.06-.09-.13-.14-.21-.14-.02,0-.06,0-.11,0-.06,0-.1.01-.12.02l-.59.26c-.11.05-.2.11-.27.17-.07.06-.11.16-.11.29,0,.04,0,.08.01.13.01.05.03.1.05.14.17.71.46,1.33.86,1.88.4.55.88,1,1.44,1.38.56.37,1.18.66,1.87.85.69.19,1.4.29,2.15.29.89,0,1.73-.12,2.55-.37.81-.25,1.53-.6,2.15-1.07.62-.47,1.11-1.04,1.48-1.72.36-.68.54-1.45.54-2.32,0-.76-.14-1.43-.44-2.03ZM252.98,26.6c-.29-.6-.7-1.13-1.24-1.6-.54-.46-1.18-.87-1.94-1.2-.76-.34-1.59-.61-2.51-.83-.01,0-.03,0-.05,0-.02,0-.07-.02-.15-.04-.42-.1-.89-.25-1.41-.43-.51-.18-1-.42-1.44-.71-.45-.29-.83-.63-1.13-1.02-.3-.39-.45-.84-.45-1.35,0-.59.11-1.1.34-1.54.23-.44.53-.8.92-1.09.39-.29.83-.5,1.33-.64.5-.14,1.02-.21,1.56-.21,1,0,1.86.22,2.57.66.72.44,1.28,1,1.69,1.67.07.12.13.24.18.34.04.11.09.2.14.27.04.07.1.13.16.17s.14.06.26.06c.06,0,.14-.02.25-.06.11-.04.21-.1.33-.17.11-.07.2-.15.29-.23.08-.09.12-.17.12-.27,0-.06-.03-.14-.09-.23h.01c-.24-.58-.54-1.12-.91-1.61-.36-.49-.79-.9-1.29-1.25-.49-.34-1.05-.61-1.66-.79-.61-.19-1.29-.28-2.03-.28-.9,0-1.71.12-2.45.37-.74.25-1.37.6-1.89,1.06-.52.46-.93,1.01-1.22,1.66-.29.65-.43,1.37-.43,2.16,0,.7.16,1.32.48,1.88.32.56.75,1.05,1.28,1.48.54.43,1.15.79,1.85,1.1.7.3,1.42.54,2.16.72.59.13,1.17.3,1.77.5s1.13.46,1.6.77c.47.31.86.7,1.16,1.14.3.45.46.98.46,1.6,0,.69-.17,1.26-.52,1.74-.34.47-.76.86-1.26,1.15-.5.29-1.03.51-1.6.64-.57.14-1.08.2-1.54.2-.36,0-.76-.05-1.2-.14-.44-.1-.87-.24-1.29-.44-.42-.2-.82-.45-1.18-.76-.36-.31-.64-.67-.83-1.08-.06-.11-.12-.24-.16-.39-.05-.14-.1-.28-.14-.41-.05-.13-.11-.24-.17-.33-.06-.09-.13-.14-.21-.14-.02,0-.06,0-.12,0-.05,0-.09.01-.11.02l-.59.26c-.11.05-.2.11-.27.17-.07.06-.11.16-.11.29,0,.04,0,.08.01.13,0,.05.03.1.05.14.17.71.46,1.33.86,1.88.4.55.89,1,1.45,1.38.56.37,1.18.66,1.87.85.69.19,1.4.29,2.15.29.89,0,1.74-.12,2.55-.37.81-.25,1.53-.6,2.15-1.07.62-.47,1.11-1.04,1.48-1.72.36-.68.54-1.45.54-2.32,0-.76-.14-1.43-.44-2.03ZM145.67,47.69c-.2-.34-.46-.64-.79-.89-.33-.25-.7-.45-1.12-.62-.42-.17-.84-.32-1.28-.45-.43-.14-.86-.26-1.27-.38-.42-.12-.79-.26-1.12-.41-.33-.15-.59-.33-.79-.53-.2-.2-.3-.46-.3-.76,0-.22.05-.43.14-.64.1-.21.24-.4.44-.57.2-.17.45-.31.76-.41s.67-.15,1.1-.15c.36,0,.7.06,1.01.17.31.12.59.25.84.39.25.15.46.29.63.43.17.14.3.23.37.28.08.08.16.12.25.12s.18-.03.26-.11l.57-.55c.09-.08.13-.16.12-.25s-.04-.17-.12-.25c-.22-.26-.48-.49-.79-.7-.3-.21-.63-.4-.98-.55-.35-.15-.7-.27-1.07-.36-.37-.09-.72-.13-1.06-.13-.63,0-1.2.08-1.71.25-.51.16-.94.39-1.3.69-.36.29-.64.65-.83,1.05-.2.41-.29.85-.29,1.35,0,.39.07.73.21,1.04.14.31.36.59.66.84.3.25.68.48,1.14.69.46.2,1.02.4,1.66.59.47.14.91.27,1.32.4.41.13.77.27,1.08.43.31.16.55.34.73.55.18.21.27.47.27.78,0,.37-.09.68-.27.96-.18.27-.42.5-.7.68-.29.18-.6.31-.94.39-.34.09-.68.13-1.01.13-.18,0-.41-.03-.67-.09-.26-.06-.54-.15-.83-.27-.29-.12-.57-.27-.86-.46-.29-.19-.54-.41-.77-.66l-.11-.11c-.07-.08-.15-.13-.23-.14-.09,0-.17.02-.27.1l-.64.53c-.09.08-.14.16-.14.24s.03.17.1.26c.26.33.55.63.88.89.33.26.68.48,1.06.66.38.18.78.32,1.19.41.41.1.83.14,1.25.14.63,0,1.22-.09,1.77-.27.55-.18,1.02-.43,1.43-.76.41-.32.73-.72.96-1.18.23-.46.35-.97.35-1.54,0-.49-.1-.91-.3-1.25ZM161.01,52.17s0-.05-.01-.08c0-.03-.01-.05-.02-.08l-4.61-11.18s-.03-.06-.04-.09c-.02-.03-.04-.07-.07-.1-.03-.03-.07-.06-.12-.08-.05-.02-.12-.03-.2-.03h-.53c-.09,0-.16.01-.2.03-.05.02-.09.05-.12.08-.03.03-.05.06-.06.1-.02.03-.03.07-.04.09l-4.66,11.18s-.01.03-.01.05c0,.02-.01.05-.01.07,0,.02,0,.05,0,.09,0,.19.12.28.37.28h.85c.11,0,.2-.03.27-.08s.12-.13.16-.22c.08-.23.19-.53.35-.92.16-.39.33-.82.52-1.3h5.66l.89,2.22c.04.09.09.16.16.22s.16.08.27.08h.86c.25,0,.37-.1.37-.28,0-.01,0-.03,0-.06ZM153.46,48.43l2.22-5.52,2.18,5.52h-4.4ZM173.41,51.05c-.07-.07-.15-.1-.25-.1h-5.65v-10.06c0-.12-.03-.21-.1-.27-.07-.06-.15-.09-.25-.09h-.83c-.12,0-.21.03-.27.1-.06.07-.1.15-.1.25v11.27c0,.24.12.36.36.36h6.86c.11,0,.19-.03.26-.1.06-.07.1-.16.1-.25v-.83c0-.12-.03-.21-.1-.28ZM189.38,44.91c-.15-.53-.36-1.02-.62-1.48-.27-.46-.59-.88-.96-1.25-.38-.38-.79-.7-1.25-.96-.45-.27-.94-.48-1.47-.62-.53-.14-1.07-.22-1.63-.22s-1.12.08-1.64.22c-.53.15-1.02.36-1.47.62-.46.27-.87.59-1.25.96-.37.38-.7.79-.96,1.25-.27.46-.48.95-.62,1.47-.14.53-.22,1.07-.22,1.63s.07,1.12.22,1.64c.14.52.35,1.01.62,1.47.27.46.59.87.96,1.24.38.37.79.7,1.24.96.45.27.94.48,1.47.62.53.14,1.07.22,1.64.22s1.12-.07,1.65-.22c.53-.14,1.02-.35,1.48-.62.46-.27.87-.59,1.24-.96.38-.38.7-.79.96-1.24.27-.45.48-.94.62-1.47.14-.53.22-1.07.22-1.63s-.08-1.12-.22-1.65ZM187.85,47.73c-.11.39-.27.76-.46,1.1-.2.34-.44.65-.72.93-.28.28-.59.52-.93.72-.34.2-.7.35-1.1.46-.39.11-.8.17-1.22.17s-.83-.05-1.22-.17c-.39-.11-.76-.26-1.1-.46-.34-.2-.65-.44-.93-.72-.28-.28-.52-.59-.72-.93-.2-.34-.35-.71-.46-1.1-.11-.39-.16-.8-.16-1.22s.05-.83.16-1.22c.11-.39.27-.76.46-1.1.2-.34.44-.65.72-.93.28-.28.59-.52.93-.72.34-.2.71-.36,1.1-.46.39-.11.8-.16,1.22-.16.64,0,1.23.12,1.79.36.56.24,1.04.57,1.46.98.41.42.74.9.98,1.46.24.56.36,1.15.36,1.79,0,.42-.05.83-.16,1.22ZM184.74,36.98h-.8c-.1,0-.18.03-.25.08-.06.05-.12.14-.19.26l-.71,1.65c-.04.06-.06.12-.06.16,0,.05-.01.09-.02.12,0,.08.02.13.05.17s.11.06.21.06h.74c.18,0,.33-.12.43-.34l.73-1.69c.04-.06.06-.11.07-.16,0-.05,0-.09,0-.14,0-.12-.07-.18-.21-.18ZM205.15,40.63c-.08-.06-.18-.1-.27-.1h-.81c-.2,0-.32.1-.36.3v9l-6.87-9.12c-.08-.12-.2-.18-.34-.18h-1.08c-.11,0-.19.03-.26.1-.06.07-.1.16-.1.27v11.25c0,.24.12.36.36.36h.81c.25,0,.37-.12.37-.36v-9.26l7.04,9.44c.09.12.19.18.31.18h.92c.26,0,.4-.12.4-.36v-11.27c0-.11-.04-.19-.12-.26Z"/>
      <path class="cls-2" d="M73.26,45.4c-.85,7.93-7.54,13.93-15.51,13.93h-9.4c-7.61,5.6-22.68,4.25-27.7,7.99-.09.07-.2-.06-.12-.14,5.8-5.84,26.29-4.17,31.99-15,.05-.09.18-.05.17.05-.23,1.45-.68,2.71-1.33,3.81h6.38c6.86,0,12.4-5.6,12.31-12.48-.09-6.77-5.73-12.15-12.5-12.15h-3.91c2.23.99,4.44,2.02,6,2.84,5.89,3.08,7.17,8.74,3.91,12.11-.07.08-.19-.02-.14-.11,2.04-3.43-.11-7.12-2.35-8.75-4.57-3.32-14.15-6.61-18.58-9.05-.16-.09-.1-.33.09-.34h9.42c6.86,0,12.41-5.61,12.32-12.49-.09-6.77-5.73-12.16-12.5-12.16h-13.8v13.04c2.47,2.77,5.08,5.36,7.41,6.92.09.06.02.19-.08.15-5.37-2.25-13.46-7.53-16.73-18.78-.03-.09.1-.15.15-.07.78,1.12,3.08,4.34,5.96,7.91V.54c0-.2.16-.36.36-.36h16.91c6.78,0,12.79,4.38,14.86,10.84,1.21,3.77.92,7.73-.63,11.17h0c-1.1,2.46-2.85,4.65-5.15,6.29,7.79,1.7,13.04,8.99,12.19,16.91ZM28.71,20.91c-.06-.1-.21-.02-.17.09,2.12,5.1,6.54,10.51,11.15,12.69.1.05.19-.09.1-.16-3.56-2.67-7.08-6.62-11.08-12.62ZM37.27,25.01C29.54,15.62,25.77,5.83,24.23.9c-.32-1.01-1.72-1.05-2.1-.06l-.12.32L.14,58.99c-.07.18.07.37.26.37h3.03c.11,0,.22-.07.26-.18l3.27-8.66h15.94c.19,0,.32-.19.25-.37h0c-.31-.9-.42-1.84-.44-2.64,0-.15-.13-.26-.27-.26h-14.24L23.16,7.54c.07-.17.3-.18.37,0,2.49,5.89,9.1,14.28,13.61,17.62.09.07.2-.05.13-.14ZM40.46,58.58c-.1.04-.05.2.06.17,3.5-1.01,10.13-4.26,9.46-11.9-.34-3.85-2.64-7.14-7.76-11.27-8.57-.39-17.06-10.25-18.54-23-.02-.13-.21-.14-.23-.01l-1.09,5.17c-.12,1.11-.03,2.23.24,3.31l.71,2.76c.19.72.09,1.49-.28,2.14-1.01,1.82-3.57,5.47-5.28,7.2-.36.37-.41.95-.09,1.36,1.39,1.76,3.87,2.65,3.87,2.65,0,0,.29.94-.2,2.56-.09.3-.04.64.15.89.71.92,1.58.83,1.58.83,0,0-.46.77-.51,1.62-.03.4.21.77.57.95.77.37,1.69.71,1.82,1.45.15.92-.82,5.74,3.1,6.08,1.58.14,4.67-1.03,6.85-1.98,1.25-.54,2.68.23,2.92,1.57l.6,3.37c-7.75,3.28-11.7,5.26-14.8,8.76-.07.08.04.2.12.13,3.69-2.88,8.9-4.95,12.78-6.25,3.33-1.11,10.09-3.15,10.39-12.2,2.84,5.44-1.08,11.28-6.44,13.63Z"/>
    </g>
  </g>
</svg>