{"scene":0,"asset":{"generator":"ImageToStl.com","version":"2.0"},"scenes":[{"name":"Scene","nodes":[0]}],"nodes":[{"name":"Node0","children":[1]},{"name":"Node1","mesh":0}],"materials":[{"name":"x1","pbrMetallicRoughness":{"baseColorFactor":[0.85,0.85,0.85,1.0],"metallicFactor":0.05,"roughnessFactor":0.5},"doubleSided":true}],"meshes":[{"name":"Mesh0","primitives":[{"indices":3,"material":0,"attributes":{"POSITION":0,"NORMAL":1,"TEXCOORD_0":2}}]}],"accessors":[{"bufferView":0,"componentType":5126,"count":16289,"type":"VEC3","min":[-299.65497,9.5367E-06,-405.56128],"max":[297.6771,1752.9951,413.97275]},{"bufferView":1,"componentType":5126,"count":16289,"type":"VEC3"},{"bufferView":2,"componentType":5126,"count":16289,"type":"VEC2"},{"bufferView":3,"componentType":5123,"count":270126,"type":"SCALAR"}],"bufferViews":[{"target":34962,"buffer":0,"byteLength":195468,"byteOffset":0},{"target":34962,"buffer":0,"byteLength":195468,"byteOffset":195468},{"target":34962,"buffer":0,"byteLength":130312,"byteOffset":390936},{"target":34963,"buffer":0,"byteLength":540252,"byteOffset":521248}],"buffers":[{"byteLength":1061500,"uri":"data:application/octet-stream;base64,"}]}