<svg id="gradient" height="512" viewBox="0 0 64 64" width="512" xmlns="http://www.w3.org/2000/svg" xmlns:xlink="http://www.w3.org/1999/xlink"><linearGradient id="linear-gradient" gradientUnits="userSpaceOnUse" x1="3.998" x2="60.008" y1="32.005" y2="32.005"><stop offset="0" stop-color="#ff81ff"/><stop offset="1" stop-color="#a93aff"/></linearGradient><path d="m59.76074 28.416-9.98633-11.69823a14.39181 14.39181 0 0 0 -13.40234-4.81054l-31.5459 5.57324a1.005 1.005 0 0 0 -.79783 1.21973l1.75486 7.2568a1.00249 1.00249 0 0 0 1.14453.75l28.27344-4.96a20.29673 20.29673 0 0 1 13.94629 2.58106l9.33887 5.59472a1.00413 1.00413 0 0 0 1.27441-1.50678zm-9.58594-5.80272a22.32478 22.32478 0 0 0 -15.31933-2.83691l-27.34961 4.79785-1.2832-5.30957 30.49707-5.38865a12.394 12.394 0 0 1 11.5332 4.14062l6.01953 7.05078zm6.24411 16.60932c.04333.777-.72769 1.138-1.40426 1.04791a7.40575 7.40575 0 0 1 -5.62555-2.22284c-1.32147.98389-2.62958 1.87005-3.9184 2.6452.78839.8988 2.47357 1.983 6.085 2.479a.99949.99949 0 0 1 -.27148 1.98046c-4.38751-.60229-6.53351-2.07354-7.578-3.4552a38.46789 38.46789 0 0 1 -5.55122 2.45674 10.38916 10.38916 0 0 0 5.22491 1.79535 1.0004 1.0004 0 0 1 -.24023 1.98633c-4.03394-.49-6.09882-1.85456-7.15692-3.09394a32.79726 32.79726 0 0 1 -5.93286 1.0885 10.32077 10.32077 0 0 0 4.4521 3.39313 1.00047 1.00047 0 0 1 -.74414 1.85742 12.33961 12.33961 0 0 1 -6.04168-5.13189 31.68529 31.68529 0 0 1 -7.645-.82245 13.7227 13.7227 0 0 0 3.53426 5.34883 1.00032 1.00032 0 0 1 -1.35152 1.47465 16.01364 16.01364 0 0 1 -4.48992-7.4486 31.45782 31.45782 0 0 1 -6.15558-2.65589c.37305 2.207 1.10742 5.13477 2.30758 6.30758a1.00013 1.00013 0 0 1 -1.39645 1.43168c-2.48926-2.43066-3.11621-8.916-3.17965-9.64742a1.00747 1.00747 0 0 1 1.60729-.87715c12.47968 8.70127 28.49433 5.39933 40.21389-5.08766a1 1 0 0 1 1.30669 1.51362c-.49841.42987-.99408.83484-1.48889 1.23309a5.68793 5.68793 0 0 0 4.401 1.44464.98626.98626 0 0 1 1.03903.95891zm-28.03121-.59272a19.48479 19.48479 0 0 0 6.43066-.69238 1.005 1.005 0 0 1 1.27543.61144c.846 2.33111-7.10347 2.11162-7.84086 2.077a1.00051 1.00051 0 0 1 .13477-1.99606zm9.45117-1.90136c.082-.03028 8.252-3.03321 13.29292-7.74117a1 1 0 0 1 1.36524 1.461 43.71258 43.71258 0 0 1 -14.31637 8.21965 1.00315 1.00315 0 0 1 -.34179-1.93948z" fill="url(#linear-gradient)"/></svg>