<svg height="469pt" viewBox="0 -34 469.10915 469" width="469pt" xmlns="http://www.w3.org/2000/svg" xmlns:xlink="http://www.w3.org/1999/xlink"><linearGradient id="a"><stop offset="0" stop-color="#bc4e9c"/><stop offset="1" stop-color="#f80759"/></linearGradient><linearGradient id="b" gradientTransform="matrix(.999768 0 0 -.999768 0 431.998652)" gradientUnits="userSpaceOnUse" x1="-25.7527" x2="491.3531" xlink:href="#a" y1="226.8803" y2="226.8803"/><linearGradient id="c" gradientTransform="matrix(.999768 0 0 -.999768 0 431.998652)" gradientUnits="userSpaceOnUse" x1="-25.7551" x2="491.3537" xlink:href="#a" y1="305.0628" y2="305.0628"/><linearGradient id="d" gradientTransform="matrix(.999768 0 0 -.999768 0 431.998652)" gradientUnits="userSpaceOnUse" x1="-25.7544" x2="491.3543" xlink:href="#a" y1="305.0625" y2="305.0625"/><linearGradient id="e" gradientTransform="matrix(.999768 0 0 -.999768 0 431.998652)" gradientUnits="userSpaceOnUse" x1="-25.7526" x2="491.3534" xlink:href="#a" y1="231.7362" y2="231.7362"/><path d="m78.164062 205.171875c0-12.953125-10.496093-23.449219-23.449218-23.449219-12.949219 0-23.449219 10.496094-23.449219 23.449219 0 12.949219 10.5 23.449219 23.449219 23.449219 12.945312-.015625 23.4375-10.503906 23.449218-23.449219zm-31.265624 0c0-4.316406 3.5-7.816406 7.816406-7.816406 4.320312 0 7.816406 3.5 7.816406 7.816406s-3.496094 7.816406-7.816406 7.816406c-4.316406-.003906-7.8125-3.5-7.816406-7.816406zm0 0" fill="url(#b)"/><path d="m420.785156 99.21875c-2.394531-3.589844-7.246094-4.5625-10.835937-2.167969-.003907 0-.003907 0-.003907 0l-23.449218 15.632813c-3.589844 2.394531-4.5625 7.246094-2.167969 10.839844.285156.429687.613281.828124.976563 1.191406l10.105468 10.105468-10.105468 10.109376c-3.054688 3.046874-3.058594 7.996093-.011719 11.050781 3.046875 3.054687 7.996093 3.0625 11.054687.011719.003906-.003907.007813-.007813.011719-.011719l15.632813-15.632813c3.050781-3.050781 3.054687-7.996094.003906-11.046875 0-.003906-.003906-.003906-.003906-.007812l-8.894532-8.890625 15.519532-10.34375c3.589843-2.390625 4.566406-7.242188 2.175781-10.832032-.003907 0-.003907-.003906-.007813-.007812zm0 0" fill="url(#c)"/><path d="m467.683594 99.21875c-2.394532-3.589844-7.246094-4.5625-10.839844-2.167969l-23.449219 15.632813c-3.589843 2.394531-4.5625 7.246094-2.167969 10.839844.285157.429687.613282.828124.976563 1.191406l10.105469 10.105468-10.105469 10.109376c-3.054687 3.046874-3.058594 7.996093-.011719 11.050781 3.050782 3.054687 8 3.0625 11.054688.011719.003906-.003907.007812-.007813.011718-.011719l15.632813-15.632813c3.050781-3.050781 3.054687-7.996094.003906-11.046875 0-.003906-.003906-.003906-.003906-.007812l-8.894531-8.890625 15.519531-10.34375c3.59375-2.390625 4.566406-7.242188 2.175781-10.832032-.003906 0-.003906-.003906-.007812-.007812zm0 0" fill="url(#d)"/><path d="m461.179688 197.355469h-15.925782c-1.460937-17.632813-16.171875-31.214844-33.867187-31.269531h-119.277344c-17.695313.054687-32.40625 13.636718-33.867187 31.269531h-123.511719l136.175781-68.089844 11.804688 17.707031c2.222656 3.332032 6.601562 4.449219 10.144531 2.582032l148.515625-78.167969c3.390625-1.78125 4.988281-5.757813 3.773437-9.386719l-7.816406-23.449219c-.078125-.238281-.273437-.402343-.371094-.625-.070312-.265625-.15625-.527343-.253906-.78125-19.492187-34.296875-62.628906-47.019531-97.609375-28.785156l-275.742188 142.84375c-29.800781-4.785156-57.84375 15.492187-62.628906 45.292969-4.785156 29.804687 15.492188 57.84375 45.292969 62.632812.296875.046875.589844.089844.886719.132813v27.984375c.027344 23.730468 19.257812 42.960937 42.988281 42.992187h140.699219c15.109375 0 27.359375 12.246094 27.359375 27.355469s-12.25 27.359375-27.359375 27.359375h-222.773438c-4.316406 0-7.816406 3.5-7.816406 7.816406 0 4.316407 3.5 7.816407 7.816406 7.816407h222.773438c23.742187 0 42.992187-19.246094 42.992187-42.992188 0-23.742188-19.25-42.988281-42.992187-42.988281h-140.699219c-15.101563-.019531-27.339844-12.257813-27.359375-27.359375v-27.359375h398.648438c4.316406.003906 7.816406-3.492188 7.816406-7.808594 0 0 0-.003906 0-.007813v-46.898437c.003906-4.316406-3.492188-7.816406-7.808594-7.816406 0 0-.003906 0-.007812 0zm-169.070313-15.632813h119.277344c9.113281.007813 16.867187 6.632813 18.296875 15.632813h-155.871094c1.429688-9 9.1875-15.621094 18.296875-15.632813zm-.300781-49.285156-6.8125-10.214844 140.355468-70.175781 2.867188 8.601563zm54.472656-110.203125c24.71875-12.878906 55.109375-6.25 72.21875 15.753906l-310.425781 155.214844c-3.277344-14.445313-12.253907-26.949219-24.890625-34.667969zm-330.648438 182.9375c0-21.585937 17.5-39.082031 39.082032-39.082031 21.585937 0 39.085937 17.496094 39.085937 39.082031s-17.5 39.082031-39.085937 39.082031c-21.574219-.027344-39.054688-17.507812-39.082032-39.082031zm437.730469 39.082031h-360.429687c8.585937-8.390625 14.167968-19.382812 15.875-31.265625h344.554687zm0 0" fill="url(#e)"/></svg>