<svg id="Layer_30" enable-background="new 0 0 496 496" height="512" viewBox="0 0 496 496" width="512" xmlns="http://www.w3.org/2000/svg" xmlns:xlink="http://www.w3.org/1999/xlink"><linearGradient id="SVGID_1_" gradientUnits="userSpaceOnUse" x1="248" x2="248" y1="496" y2="0"><stop offset="0" stop-color="#9f2fff"/><stop offset="1" stop-color="#0bb1d3"/></linearGradient><path d="m192 288v40c0 20.983 16.24 38.244 36.812 39.874l-2.186 2.185c-6.852 6.853-10.626 15.964-10.626 25.657 0 20.007 16.277 36.284 36.284 36.284h3.152c7.186 0 14.146-2.106 20.127-6.094l15.082-10.055c11.993-1.322 21.355-11.512 21.355-23.851 0-12.196-9.146-22.298-20.939-23.806 18.685-19.746 28.939-45.466 28.939-72.762v-15.432c0-39.701-32.299-72-72-72h-8c-35.29 0-64 28.71-64 64 0 8.822 7.178 16 16 16zm16 40v-40.364c14.424-1.317 28.256-6.191 40.406-14.292l.937-.624c.706-.471 1.528-.72 2.376-.72 2.36 0 4.281 1.921 4.281 4.281v27.719h8c4.411 0 8 3.589 8 8s-3.589 8-8 8h-8v8c0 8.181-3.186 15.872-8.971 21.656l-2.342 2.344h-12.687c-13.233 0-24-10.767-24-24zm88 64c0 4.411-3.589 8-8 8s-8-3.589-8-8c0-7.712 2.83-14.987 8-20.642v12.642c4.411 0 8 3.589 8 8zm-56-168h8c30.879 0 56 25.121 56 56v15.432c0 24.024-9.355 46.61-26.344 63.598-8.806 8.806-13.656 20.515-13.656 32.97 0 6.841 2.882 13.017 7.489 17.393l-4.799 3.2c-3.345 2.229-7.235 3.407-11.253 3.407h-3.152c-11.185 0-20.285-9.1-20.285-20.284 0-5.418 2.11-10.512 5.941-14.343l20.402-20.402c7.184-7.185 11.734-16.299 13.168-26.174 9.567-3.16 16.489-12.186 16.489-22.797 0-10.43-6.688-19.327-16-22.629v-13.09c0-11.184-9.098-20.281-20.281-20.281-4.017 0-7.906 1.178-11.25 3.406l-.938.625c-11.745 7.83-25.414 11.969-39.531 11.969h-8c0-26.467 21.533-48 48-48zm0-152c0-4.418 3.582-8 8-8s8 3.582 8 8-3.582 8-8 8-8-3.582-8-8zm214.148 359.416c-21.827-4.721-52.235-8.614-88.19-11.307-.874-2.353-2.013-4.614-3.427-6.735-6.889-10.334-10.531-22.361-10.531-34.781v-140.171c0-7.851 2.302-15.453 6.656-21.983 6.112-9.169 9.344-19.84 9.344-30.86v-1.762c0-17.418-8.319-34.056-22.254-44.507l-8.68-6.51c-4.127-3.095-9.241-4.8-14.399-4.8h-2.667v-88c0-22.056-17.944-40-40-40h-64c-22.056 0-40 17.944-40 40v88h-2.667c-5.158 0-10.272 1.705-14.399 4.8l-8.68 6.51c-13.935 10.451-22.254 27.088-22.254 44.506v1.762c0 11.021 3.231 21.691 9.344 30.86 4.354 6.53 6.656 14.133 6.656 21.983v140.171c0 12.42-3.642 24.447-10.532 34.782-1.413 2.12-2.552 4.381-3.426 6.734-35.956 2.694-66.364 6.586-88.19 11.307-29.335 6.346-41.852 13.698-41.852 24.585 0 10.018 9.177 21.482 77.237 30.557 45.669 6.089 106.315 9.443 170.763 9.443s125.094-3.354 170.763-9.443c68.06-9.075 77.237-20.539 77.237-30.557 0-10.887-12.517-18.239-41.852-24.584zm-238.148-415.416h64c13.233 0 24 10.767 24 24v56h-16v-48c0-8.822-7.178-16-16-16h-48c-8.822 0-16 7.178-16 16v48h-16v-56c0-13.233 10.767-24 24-24zm56 80h-48v-48h48zm-80 16h112v16h-112zm-32.146 40.11 8.68-6.51c1.376-1.032 3.081-1.601 4.8-1.601h149.334c1.719 0 3.424.568 4.8 1.601l8.68 6.51c7.811 5.858 13.13 14.45 15.049 23.89h-206.392c1.919-9.44 7.237-18.032 15.049-23.89zm-13.073 270.139c8.648-12.971 13.219-28.067 13.219-43.656v-140.171c0-11.021-3.231-21.691-9.344-30.86-3.153-4.728-5.212-10.022-6.118-15.562h206.924c-.906 5.539-2.966 10.833-6.118 15.562-6.112 9.169-9.344 19.84-9.344 30.86v140.171c0 15.589 4.571 30.686 13.218 43.655 1.82 2.73 2.782 5.908 2.782 9.189 0 9.133-7.43 16.563-16.563 16.563h-174.875c-9.132 0-16.562-7.43-16.562-16.562 0-3.282.962-6.459 2.781-9.189zm261.994 49.451c-43.98 5.353-101.078 8.3-160.775 8.3s-116.795-2.947-160.775-8.3c-49.154-5.981-64.883-12.734-69.666-15.724 7.602-4.702 36.37-13.955 110.803-19.697 2.346 15.666 15.891 27.72 32.201 27.72h174.875c16.31 0 29.855-12.054 32.201-27.72 74.433 5.742 103.201 14.995 110.803 19.697-4.784 2.99-20.512 9.743-69.667 15.724z" fill="url(#SVGID_1_)"/></svg>