<svg height="469pt" viewBox="-55 0 469 469.11145" width="469pt" xmlns="http://www.w3.org/2000/svg" xmlns:xlink="http://www.w3.org/1999/xlink"><linearGradient id="a"><stop offset="0" stop-color="#bc4e9c"/><stop offset="1" stop-color="#f80759"/></linearGradient><linearGradient id="b" gradientTransform="matrix(.999763 0 0 -.999763 -54.675275 460.254623)" gradientUnits="userSpaceOnUse" x1="12.3277" x2="503.6382" xlink:href="#a" y1="77.2554" y2="77.2554"/><linearGradient id="c" gradientTransform="matrix(.999763 0 0 -.999763 -54.675275 460.254623)" gradientUnits="userSpaceOnUse" x1="12.328" x2="503.6386" xlink:href="#a" y1="225.8078" y2="225.8078"/><linearGradient id="d" gradientTransform="matrix(.999763 0 0 -.999763 -54.675275 460.254623)" gradientUnits="userSpaceOnUse" x1="12.3285" x2="503.6397" xlink:href="#a" y1="237.5335" y2="237.5335"/><linearGradient id="e" gradientTransform="matrix(.999763 0 0 -.999763 -54.675275 460.254623)" gradientUnits="userSpaceOnUse" x1="12.3279" x2="503.6384" xlink:href="#a" y1="421.2671" y2="421.2671"/><path d="m117.292969 328.300781c-21.183594 0-39.082031 25.0625-39.082031 54.71875 0 29.652344 17.898437 54.714844 39.082031 54.714844 21.183593 0 39.082031-25.0625 39.082031-54.714844 0-29.65625-17.898438-54.71875-39.082031-54.71875zm0 93.800781c-10.847657 0-23.449219-17.078124-23.449219-39.082031 0-22.007812 12.601562-39.085937 23.449219-39.085937 10.84375 0 23.449219 17.078125 23.449219 39.085937 0 22.003907-12.605469 39.082031-23.449219 39.082031zm0 0" fill="url(#b)"/><path d="m289.257812 297.035156c-.894531 0-1.765624.125-2.652343.164063l-48.707031-76.8125 89.464843-161.886719c.855469-1.542969 1.160157-3.324219.871094-5.0625l-7.820313-46.898438c-.703124-4.257812-4.726562-7.136718-8.984374-6.433593-2.199219.363281-4.136719 1.648437-5.328126 3.53125l-102.828124 162.15625-102.828126-162.15625c-2.308593-3.6445315-7.132812-4.730469-10.78125-2.421875-1.882812 1.1875-3.167968 3.125-3.53125 5.324218l-7.816406 46.898438c-.289062 1.738281.015625 3.523438.871094 5.0625l89.464844 161.886719-48.707032 76.8125c-.886718-.039063-1.757812-.164063-2.652343-.164063-38.792969 0-70.347657 38.574219-70.347657 85.984375 0 2.191407.136719 4.34375.269532 6.496094-.128906.417969-.21875.84375-.269532 1.273437.675782 12.300782-8.746093 22.820313-21.046874 23.496094-.800782.042969-1.601563.042969-2.402344 0-4.320313 0-7.816406 3.5-7.816406 7.816406 0 4.316407 3.496093 7.816407 7.816406 7.816407 11.175781.578125 22.011718-3.976563 29.417968-12.367188 10.90625 30.253907 35.636719 51.449219 64.378907 51.449219 38.792969 0 70.347656-38.570312 70.347656-85.980469.109375-17.125-4.222656-33.984375-12.574219-48.933593l28.210938-51.046876 28.210937 51.046876c-8.351562 14.949218-12.683593 31.808593-12.578125 48.933593 0 47.410157 31.554688 85.980469 70.347656 85.980469 38.792969 0 70.351563-38.570312 70.351563-85.980469 0-47.414062-31.558594-85.984375-70.351563-85.984375zm-195.074218-243.710937 4.011718-24.054688 95.824219 151.121094-15.824219 24.953125zm23.109375 400.042969c-30.167969 0-54.71875-31.554688-54.71875-70.347657s24.550781-70.351562 54.71875-70.351562c30.164062 0 54.714843 31.558593 54.714843 70.351562s-24.550781 70.347657-54.714843 70.347657zm19.15625-153.007813 171.90625-271.089844 4.007812 24.054688-147.371093 266.675781c-7.664063-8.894531-17.496094-15.660156-28.542969-19.640625zm75.753906-33.476563 17.074219-30.898437 40.820312 64.375c-11.046875 3.980469-20.875 10.746094-28.542968 19.640625zm77.054687 186.484376c-30.167968 0-54.714843-31.554688-54.714843-70.347657s24.546875-70.351562 54.714843-70.351562c30.167969 0 54.714844 31.558593 54.714844 70.351562s-24.546875 70.347657-54.714844 70.347657zm0 0" fill="url(#c)"/><path d="m289.257812 328.300781c-21.183593 0-39.082031 25.0625-39.082031 54.71875 0 29.652344 17.898438 54.714844 39.082031 54.714844 21.183594 0 39.082032-25.0625 39.082032-54.714844 0-29.65625-17.898438-54.71875-39.082032-54.71875zm0 93.800781c-10.847656 0-23.449218-17.078124-23.449218-39.082031 0-22.007812 12.601562-39.085937 23.449218-39.085937 10.847657 0 23.449219 17.078125 23.449219 39.085937 0 22.003907-12.601562 39.082031-23.449219 39.082031zm0 0" fill="url(#b)"/><path d="m203.273438 211.050781c-4.3125 0-7.8125 3.496094-7.816407 7.808594v.007813 7.816406c0 4.316406 3.5 7.816406 7.816407 7.816406 4.316406 0 7.816406-3.5 7.816406-7.816406v-7.816406c.003906-4.3125-3.492188-7.8125-7.808594-7.816407 0 0-.003906 0-.007812 0zm0 0" fill="url(#d)"/><path d="m31.308594 70.355469c0 4.316406 3.5 7.816406 7.816406 7.816406s7.816406-3.5 7.816406-7.816406c.015625-12.945313 10.503906-23.4375 23.449219-23.449219 4.316406 0 7.816406-3.5 7.816406-7.816406 0-4.320313-3.5-7.816406-7.816406-7.816406-12.945313-.015626-23.433594-10.507813-23.449219-23.449219 0-4.320313-3.5-7.8164065-7.816406-7.8164065s-7.816406 3.4960935-7.816406 7.8164065c-.011719 12.941406-10.503906 23.433593-23.449219 23.445312-4.316406 0-7.8164062 3.5-7.8164062 7.816407 0 4.316406 3.5000002 7.816406 7.8164062 7.816406 12.945313.015625 23.4375 10.507812 23.449219 23.453125zm7.816406-39.105469c2.230469 2.96875 4.871094 5.609375 7.839844 7.835938-2.96875 2.230468-5.609375 4.871093-7.839844 7.839843-2.230469-2.96875-4.867188-5.609375-7.839844-7.839843 2.972656-2.226563 5.609375-4.867188 7.839844-7.835938zm0 0" fill="url(#e)"/></svg>