<svg height="469pt" viewBox="-55 0 469 469.19246" width="469pt" xmlns="http://www.w3.org/2000/svg" xmlns:xlink="http://www.w3.org/1999/xlink"><linearGradient id="a"><stop offset="0" stop-color="#bc4e9c"/><stop offset="1" stop-color="#f80759"/></linearGradient><linearGradient id="b" gradientTransform="matrix(.999589 0 0 -.999589 -54.675681 460.173482)" gradientUnits="userSpaceOnUse" x1="-41.4321" x2="460.7671" xlink:href="#a" y1="421.1892" y2="421.1892"/><linearGradient id="c" gradientTransform="matrix(.999589 0 0 -.999589 -54.675681 460.173482)" gradientUnits="userSpaceOnUse" x1="-41.4322" x2="460.767" xlink:href="#a" y1="225.7668" y2="225.7668"/><linearGradient id="d" gradientTransform="matrix(.999589 0 0 -.999589 -54.675681 460.173482)" gradientUnits="userSpaceOnUse" x1="-41.4323" x2="460.7666" xlink:href="#a" y1="190.5442" y2="190.5442"/><path d="m351.761719 31.34375c-12.945313-.015625-23.433594-10.503906-23.445313-23.445312 0-4.316407-3.5-7.8164068-7.816406-7.8164068s-7.816406 3.4999998-7.816406 7.8164068c-.011719 12.941406-10.5 23.429687-23.445313 23.445312-4.316406 0-7.8125 3.496094-7.8125 7.8125s3.496094 7.816406 7.8125 7.816406c12.945313.011719 23.433594 10.5 23.445313 23.445313 0 4.316406 3.5 7.8125 7.816406 7.8125s7.816406-3.496094 7.816406-7.8125c.011719-12.945313 10.5-23.433594 23.445313-23.445313 4.316406 0 7.8125-3.5 7.8125-7.816406s-3.496094-7.8125-7.8125-7.8125zm-31.261719 15.652344c-2.234375-2.96875-4.871094-5.605469-7.839844-7.839844 2.96875-2.230469 5.609375-4.867188 7.839844-7.835938 2.230469 2.96875 4.867188 5.605469 7.835938 7.835938-2.96875 2.234375-5.605469 4.871094-7.835938 7.839844zm0 0" fill="url(#b)"/><path d="m187.402344 26.824219c.953125-3.769531-1.007813-7.664063-4.605469-9.144531-56.949219-23.574219-120.929687-23.574219-177.878906 0-3.59375 1.480468-5.558594 5.375-4.605469 9.144531l54.503906 216.628906 6.949219 194.574219c.632813 17.726562 15.511719 31.582031 33.234375 30.953125 16.839844-.601563 30.351562-14.113281 30.949219-30.953125l6.953125-194.574219zm-16.839844 2.839843-28.085938 111.089844h-23.976562l6.539062-45.785156c.617188-4.269531-2.34375-8.230469-6.613281-8.851562-4.269531-.617188-8.234375 2.34375-8.851562 6.613281-.003907.011719-.003907.019531-.003907.027343l-6.859374 47.996094h-17.707032l-6.855468-47.996094c-.605469-4.273437-4.558594-7.246093-8.832032-6.640624-4.273437.601562-7.246094 4.554687-6.640625 8.828124 0 .007813 0 .015626.003907.027344l6.539062 45.785156h-23.980469l-28.085937-111.09375c49.425781-18.699218 103.984375-18.699218 153.410156 0zm-60.234375 407.808594c-.324219 9.09375-7.960937 16.203125-17.058594 15.878906-8.640625-.304687-15.574219-7.242187-15.882812-15.878906l-6.691407-187.304687h46.328126zm8.6875-202.933594h-50.316406l-19.539063-78.152343h89.394532zm0 0" fill="url(#c)"/><path d="m289.238281 78.234375c0-4.316406-3.5-7.816406-7.8125-7.816406h-93.785156c-4.316406 0-7.8125 3.5-7.8125 7.816406v101.597656c.078125.929688.242187 1.847657.496094 2.742188l22.996093 61.332031 7.214844 201.933594c.472656 13.253906 11.601563 23.613281 24.855469 23.140625 12.589844-.449219 22.691406-10.550781 23.140625-23.140625l7.214844-201.933594 22.996094-61.332031c.253906-.894531.417968-1.8125.5-2.742188v-101.597656zm-93.78125 7.816406h15.628907v23.445313c0 4.316406 3.5 7.8125 7.816406 7.8125s7.8125-3.496094 7.8125-7.8125v-23.445313h15.632812v23.445313c0 4.316406 3.496094 7.8125 7.8125 7.8125s7.816406-3.496094 7.816406-7.8125v-23.445313h15.628907v85.964844h-78.152344v-85.964844zm47.449219 359.230469c-.164062 4.628906-4.046875 8.242188-8.671875 8.078125-4.394531-.15625-7.921875-3.683594-8.078125-8.078125l-6.972656-195.113281h30.695312zm9.65625-210.742188h-36.0625l-17.585938-46.890624h71.230469zm0 0" fill="url(#d)"/></svg>